<svg width="92" height="25" viewBox="0 0 92 25" fill="none" xmlns="http://www.w3.org/2000/svg">
<path d="M12.4764 24.6416H0V19.7679H12.4764C12.8496 19.7679 13.1696 19.6485 13.4361 19.4096C13.7027 19.1707 13.836 18.884 13.836 18.5495C13.836 18.2031 13.7027 17.9761 13.4361 17.8686C13.1696 17.7611 12.8496 17.7073 12.4764 17.7073H6.79805C5.85165 17.7073 4.96524 17.5461 4.13881 17.2236C3.31238 16.901 2.59259 16.465 1.97943 15.9155C1.36627 15.3541 0.879748 14.7031 0.519851 13.9625C0.173284 13.2219 0 12.4275 0 11.5794C0 10.7313 0.173284 9.93688 0.519851 9.19627C0.879748 8.45566 1.36627 7.81061 1.97943 7.26112C2.59259 6.71163 3.31238 6.2816 4.13881 5.97102C4.96524 5.6485 5.85165 5.48723 6.79805 5.48723H17.8549V10.3609H6.79805C6.42482 10.3609 6.10492 10.4804 5.83832 10.7193C5.57173 10.9582 5.43844 11.2449 5.43844 11.5794C5.43844 11.9258 5.57173 12.2244 5.83832 12.4753C6.10492 12.7142 6.42482 12.8336 6.79805 12.8336H12.4764C13.4095 12.8336 14.2892 12.977 15.1157 13.2637C15.9421 13.5384 16.6619 13.9266 17.275 14.4283C17.8882 14.93 18.3747 15.5333 18.7346 16.2381C19.0945 16.9428 19.2745 17.7133 19.2745 18.5495C19.2745 19.3976 19.0945 20.192 18.7346 20.9326C18.3747 21.6613 17.8882 22.3063 17.275 22.8678C16.6619 23.4172 15.9421 23.8532 15.1157 24.1758C14.2892 24.4863 13.4095 24.6416 12.4764 24.6416Z" fill="#EAEAE8"/>
<path d="M29.0733 19.9471C29.2865 20.0068 29.4998 20.0486 29.7131 20.0725C29.9263 20.0845 30.1396 20.0905 30.3529 20.0905C30.8861 20.0905 31.3993 20.0248 31.8925 19.8934C32.3856 19.762 32.8455 19.5768 33.2721 19.3379C33.7119 19.087 34.0985 18.7884 34.4317 18.442C34.7783 18.0836 35.0582 17.6894 35.2715 17.2594L39.2703 20.8609C38.7638 21.506 38.1773 22.0853 37.5108 22.599C36.8577 23.1126 36.1446 23.5486 35.3715 23.907C34.6117 24.2654 33.8052 24.5341 32.9521 24.7133C32.1124 24.9044 31.246 25 30.3529 25C28.8467 25 27.4271 24.7491 26.0941 24.2474C24.7745 23.7457 23.6148 23.0469 22.6151 22.151C21.6287 21.2551 20.849 20.192 20.2758 18.9616C19.7026 17.7193 19.416 16.3575 19.416 14.8763C19.416 13.3592 19.7026 11.9736 20.2758 10.7193C20.849 9.46504 21.6287 8.39593 22.6151 7.51197C23.6148 6.62802 24.7745 5.94116 26.0941 5.4514C27.4271 4.96164 28.8467 4.71676 30.3529 4.71676C31.246 4.71676 32.1191 4.81232 32.9721 5.00344C33.8252 5.19457 34.6317 5.46931 35.3914 5.82768C36.1646 6.18604 36.8843 6.62802 37.5508 7.15361C38.2173 7.66726 38.8038 8.24661 39.3103 8.89166L29.0733 19.9471ZM31.8725 9.85924C31.6192 9.77562 31.3659 9.72187 31.1127 9.69798C30.8727 9.67409 30.6195 9.66214 30.3529 9.66214C29.6064 9.66214 28.9 9.78757 28.2335 10.0384C27.5804 10.2773 27.0072 10.6237 26.514 11.0777C26.0341 11.5316 25.6542 12.0811 25.3743 12.7261C25.0944 13.3592 24.9544 14.076 24.9544 14.8763C24.9544 15.0555 24.9611 15.2585 24.9744 15.4855C25.0011 15.7125 25.0344 15.9454 25.0744 16.1843C25.1277 16.4113 25.1877 16.6323 25.2544 16.8473C25.321 17.0623 25.4076 17.2534 25.5143 17.4207L31.8725 9.85924Z" fill="#EAEAE8"/>
<path d="M45.93 24.6416H40.4316V4.71676H45.93V24.6416Z" fill="#EAEAE8"/>
<path d="M69.9047 14.8763C69.9047 16.3814 69.6182 17.7551 69.045 18.9974C68.4718 20.2398 67.692 21.3089 66.7057 22.2048C65.7193 23.0887 64.5596 23.7756 63.2267 24.2654C61.907 24.7551 60.4874 25 58.9679 25C57.4616 25 56.0421 24.7491 54.7091 24.2474C53.3895 23.7457 52.2298 23.0469 51.2301 22.151C50.2437 21.2551 49.4639 20.192 48.8908 18.9616C48.3176 17.7193 48.031 16.3575 48.031 14.8763V0H53.5094V6.77733C53.8027 6.44286 54.1559 6.14423 54.5691 5.88143C54.9957 5.61863 55.4489 5.40361 55.9288 5.23638C56.4219 5.06914 56.9285 4.94372 57.4483 4.8601C57.9682 4.76454 58.4747 4.71676 58.9679 4.71676C60.4874 4.71676 61.907 4.97358 63.2267 5.48723C64.5596 5.98894 65.7193 6.69372 66.7057 7.60156C67.692 8.50941 68.4718 9.5845 69.045 10.8268C69.6182 12.0572 69.9047 13.407 69.9047 14.8763ZM64.4063 14.8763C64.4063 14.1357 64.2597 13.4488 63.9664 12.8157C63.6865 12.1707 63.3 11.6152 62.8068 11.1493C62.3136 10.6835 61.7338 10.3191 61.0673 10.0563C60.4141 9.79354 59.7143 9.66214 58.9679 9.66214C58.2214 9.66214 57.515 9.81146 56.8485 10.1101C56.1953 10.3968 55.6222 10.785 55.129 11.2748C54.6358 11.7526 54.2492 12.308 53.9693 12.9411C53.6894 13.5623 53.5494 14.2074 53.5494 14.8763C53.5494 15.6169 53.6894 16.3038 53.9693 16.9369C54.2492 17.57 54.6358 18.1195 55.129 18.5853C55.6222 19.0512 56.1953 19.4215 56.8485 19.6963C57.515 19.9591 58.2214 20.0905 58.9679 20.0905C59.7143 20.0905 60.4141 19.9591 61.0673 19.6963C61.7338 19.4215 62.3136 19.0512 62.8068 18.5853C63.3 18.1195 63.6865 17.57 63.9664 16.9369C64.2597 16.3038 64.4063 15.6169 64.4063 14.8763Z" fill="#EAEAE8"/>
<path d="M92 14.8763C92 16.3097 91.7134 17.6476 91.1402 18.8899C90.5671 20.1203 89.7873 21.1894 88.8009 22.0973C87.8145 22.9932 86.6549 23.7039 85.3219 24.2295C84.0023 24.7432 82.5827 25 81.0631 25C79.5569 25 78.1373 24.7432 76.8044 24.2295C75.4847 23.7039 74.3251 22.9932 73.3254 22.0973C72.339 21.1894 71.5592 20.1203 70.986 18.8899C70.4129 17.6476 70.1263 16.3097 70.1263 14.8763C70.1263 13.419 70.4129 12.0691 70.986 10.8268C71.5592 9.5845 72.339 8.51538 73.3254 7.61948C74.3251 6.71163 75.4847 6.00088 76.8044 5.48723C78.1373 4.97358 79.5569 4.71676 81.0631 4.71676C82.5827 4.71676 84.0023 4.96164 85.3219 5.4514C86.6549 5.92921 87.8145 6.61607 88.8009 7.51197C89.7873 8.39593 90.5671 9.46504 91.1402 10.7193C91.7134 11.9616 92 13.3473 92 14.8763ZM86.5016 14.8763C86.5016 14.0879 86.355 13.3772 86.0617 12.744C85.7818 12.099 85.3952 11.5495 84.902 11.0956C84.4089 10.6297 83.829 10.2773 83.1625 10.0384C82.5094 9.78757 81.8096 9.66214 81.0631 9.66214C80.3167 9.66214 79.6102 9.78757 78.9437 10.0384C78.2906 10.2773 77.7174 10.6297 77.2242 11.0956C76.7444 11.5495 76.3645 12.099 76.0846 12.744C75.8046 13.3772 75.6647 14.0879 75.6647 14.8763C75.6647 15.6169 75.8046 16.3038 76.0846 16.9369C76.3645 17.57 76.7444 18.1195 77.2242 18.5853C77.7174 19.0512 78.2906 19.4215 78.9437 19.6963C79.6102 19.9591 80.3167 20.0905 81.0631 20.0905C81.8096 20.0905 82.5094 19.965 83.1625 19.7142C83.829 19.4633 84.4089 19.1109 84.902 18.657C85.3952 18.2031 85.7818 17.6536 86.0617 17.0085C86.355 16.3635 86.5016 15.6527 86.5016 14.8763Z" fill="#EAEAE8"/>
<path d="M40.3694 0H46.0058V2.86689H40.3694V0Z" fill="#D9D9D9"/>
</svg>
